<?xml version="1.0" encoding="UTF-8"?>
<svg xmlns="http://www.w3.org/2000/svg" version="1.1" viewBox="0 0 512 512">
  <defs>
    <style>
      .cls-1 {
        fill: #fff;
      }
    </style>
  </defs>
  <!-- Generator: Adobe Illustrator 28.6.0, SVG Export Plug-In . SVG Version: 1.2.0 Build 709)  -->
  <g>
    <g id="Layer_1">
      <path class="cls-1" d="M256,512c141.4,0,256-114.6,256-256S397.4,0,256,0,0,114.6,0,256s114.6,256,256,256ZM216,336h24v-64h-24c-13.3,0-24-10.7-24-24s10.7-24,24-24h48c13.3,0,24,10.7,24,24v88h8c13.3,0,24,10.7,24,24s-10.7,24-24,24h-80c-13.3,0-24-10.7-24-24s10.7-24,24-24ZM256,128c17.7,0,32,14.3,32,32s-14.3,32-32,32-32-14.3-32-32,14.3-32,32-32Z"/>
    </g>
  </g>
</svg>